<svg width="14" height="16" viewBox="0 0 14 16" fill="none" xmlns="http://www.w3.org/2000/svg">
<path d="M4.33333 2.75L9 6.25L5 9.75L9.66667 13.25M1 2.68C1 1.8883 1 1.4921 1.234 1.2457C1.46867 1 1.84667 1 2.6 1H2.73333C3.48733 1 3.86467 1 4.09933 1.2457C4.33333 1.4921 4.33333 1.889 4.33333 2.68V2.82C4.33333 3.6117 4.33333 4.0079 4.09933 4.2543C3.86467 4.5 3.48667 4.5 2.73333 4.5H2.6C1.846 4.5 1.46867 4.5 1.234 4.2543C1 4.0079 1 3.611 1 2.82V2.68ZM9.66667 6.18C9.66667 5.3883 9.66667 4.9921 9.90133 4.7457C10.1347 4.5 10.5127 4.5 11.2667 4.5H11.4C12.154 4.5 12.5313 4.5 12.7653 4.7457C13 4.9921 13 5.389 13 6.18V6.32C13 7.1117 13 7.5079 12.7653 7.7543C12.532 8 12.154 8 11.4 8H11.2667C10.5127 8 10.1353 8 9.90133 7.7543C9.66667 7.5079 9.66667 7.111 9.66667 6.32V6.18ZM1 9.68C1 8.8883 1 8.4921 1.234 8.2457C1.46867 8 1.84667 8 2.6 8H2.73333C3.48733 8 3.86467 8 4.09933 8.2457C4.33333 8.4928 4.33333 8.889 4.33333 9.68V9.82C4.33333 10.6117 4.33333 11.0079 4.09933 11.2536C3.86467 11.5 3.48667 11.5 2.73333 11.5H2.6C1.846 11.5 1.46867 11.5 1.234 11.2536C1 11.0086 1 10.6117 1 9.82V9.68ZM9.66667 13.18C9.66667 12.3883 9.66667 11.9921 9.90133 11.7464C10.1347 11.5 10.5127 11.5 11.2667 11.5H11.4C12.154 11.5 12.5313 11.5 12.7653 11.7464C13 11.9914 13 12.3883 13 13.18V13.32C13 14.1117 13 14.5079 12.7653 14.7536C12.532 15 12.154 15 11.4 15H11.2667C10.5127 15 10.1353 15 9.90133 14.7536C9.66667 14.5086 9.66667 14.1117 9.66667 13.32V13.18Z" stroke="#6D757D" stroke-width="1.6" stroke-linecap="round" stroke-linejoin="round"/>
</svg>
