<svg width="14" height="14" viewBox="0 0 14 14" fill="none" xmlns="http://www.w3.org/2000/svg">
<g clip-path="url(#clip0_200_4188)">
<path d="M12.8327 9.91816C12.8324 10.7159 12.5597 11.4896 12.0598 12.1113C11.5598 12.7329 10.8626 13.1652 10.0834 13.3365L9.71127 12.22C10.0521 12.1639 10.3762 12.0328 10.6602 11.8363C10.9443 11.6398 11.1812 11.3828 11.3539 11.0837H9.91602C9.6066 11.0837 9.30985 10.9607 9.09106 10.7419C8.87227 10.5232 8.74935 10.2264 8.74935 9.91699V7.58366C8.74935 7.27424 8.87227 6.97749 9.09106 6.7587C9.30985 6.53991 9.6066 6.41699 9.91602 6.41699H11.6298C11.4875 5.28935 10.9386 4.2524 10.086 3.50072C9.23348 2.74904 8.13594 2.33429 6.99935 2.33429C5.86275 2.33429 4.76522 2.74904 3.91268 3.50072C3.06015 4.2524 2.5112 5.28935 2.36885 6.41699H4.08268C4.3921 6.41699 4.68885 6.53991 4.90764 6.7587C5.12643 6.97749 5.24935 7.27424 5.24935 7.58366V9.91699C5.24935 10.2264 5.12643 10.5232 4.90764 10.7419C4.68885 10.9607 4.3921 11.0837 4.08268 11.0837H2.33268C2.02326 11.0837 1.72652 10.9607 1.50772 10.7419C1.28893 10.5232 1.16602 10.2264 1.16602 9.91699V7.00033C1.16602 3.77858 3.7776 1.16699 6.99935 1.16699C10.2211 1.16699 12.8327 3.77858 12.8327 7.00033V9.91816Z" fill="#6D757D"/>
</g>
<defs>
<clipPath id="clip0_200_4188">
<rect width="14" height="14" fill="white"/>
</clipPath>
</defs>
</svg>
