<svg width="14" height="14" viewBox="0 0 14 14" fill="none" xmlns="http://www.w3.org/2000/svg">
<g clip-path="url(#clip0_200_4187)">
<path d="M1.74935 1.75H12.2493C12.4041 1.75 12.5524 1.81146 12.6618 1.92085C12.7712 2.03025 12.8327 2.17862 12.8327 2.33333V11.6667C12.8327 11.8214 12.7712 11.9697 12.6618 12.0791C12.5524 12.1885 12.4041 12.25 12.2493 12.25H1.74935C1.59464 12.25 1.44627 12.1885 1.33687 12.0791C1.22747 11.9697 1.16602 11.8214 1.16602 11.6667V2.33333C1.16602 2.17862 1.22747 2.03025 1.33687 1.92085C1.44627 1.81146 1.59464 1.75 1.74935 1.75V1.75ZM6.99935 5.25H4.66602V6.41667H9.91602L6.99935 3.5V5.25ZM4.08268 7.58333L6.99935 10.5V8.75H9.33268V7.58333H4.08268Z" fill="#6D757D"/>
</g>
<defs>
<clipPath id="clip0_200_4187">
<rect width="14" height="14" fill="white"/>
</clipPath>
</defs>
</svg>
