<svg width="14" height="14" viewBox="0 0 14 14" fill="none" xmlns="http://www.w3.org/2000/svg">
<g clip-path="url(#clip0_200_4194)">
<path d="M6.99935 1.16699C10.2193 1.16699 12.8327 3.78033 12.8327 7.00033C12.8327 10.2203 10.2193 12.8337 6.99935 12.8337C3.77935 12.8337 1.16602 10.2203 1.16602 7.00033C1.16602 3.78033 3.77935 1.16699 6.99935 1.16699ZM3.51277 8.99299C4.3691 10.2705 5.65477 11.0837 7.09268 11.0837C8.53002 11.0837 9.81627 10.2711 10.672 8.99299C9.7012 8.08567 8.42148 7.5818 7.09268 7.58366C5.76368 7.58165 4.48373 8.08554 3.51277 8.99299V8.99299ZM6.99935 6.41699C7.46348 6.41699 7.9086 6.23262 8.23679 5.90443C8.56497 5.57624 8.74935 5.13112 8.74935 4.66699C8.74935 4.20286 8.56497 3.75774 8.23679 3.42956C7.9086 3.10137 7.46348 2.91699 6.99935 2.91699C6.53522 2.91699 6.0901 3.10137 5.76191 3.42956C5.43372 3.75774 5.24935 4.20286 5.24935 4.66699C5.24935 5.13112 5.43372 5.57624 5.76191 5.90443C6.0901 6.23262 6.53522 6.41699 6.99935 6.41699V6.41699Z" fill="#6D757D"/>
</g>
<defs>
<clipPath id="clip0_200_4194">
<rect width="14" height="14" fill="white"/>
</clipPath>
</defs>
</svg>
