<svg width="31" height="31" viewBox="0 0 31 31" fill="none" xmlns="http://www.w3.org/2000/svg">
<g clip-path="url(#clip0_14565_32212)">
<path d="M2.58337 25.834H28.4167V28.4173H2.58337V25.834ZM5.16671 15.5007H7.75004V24.5423H5.16671V15.5007ZM11.625 15.5007H14.2084V24.5423H11.625V15.5007ZM16.7917 15.5007H19.375V24.5423H16.7917V15.5007ZM23.25 15.5007H25.8334V24.5423H23.25V15.5007ZM2.58337 9.04232L15.5 2.58398L28.4167 9.04232V14.209H2.58337V9.04232ZM5.16671 10.6388V11.6257H25.8334V10.6388L15.5 5.47215L5.16671 10.6388ZM15.5 10.334C15.1575 10.334 14.8289 10.1979 14.5867 9.95566C14.3445 9.71343 14.2084 9.38489 14.2084 9.04232C14.2084 8.69975 14.3445 8.37121 14.5867 8.12897C14.8289 7.88674 15.1575 7.75065 15.5 7.75065C15.8426 7.75065 16.1712 7.88674 16.4134 8.12897C16.6556 8.37121 16.7917 8.69975 16.7917 9.04232C16.7917 9.38489 16.6556 9.71343 16.4134 9.95566C16.1712 10.1979 15.8426 10.334 15.5 10.334Z" fill="#757374"/>
</g>
<defs>
<clipPath id="clip0_14565_32212">
<rect width="31" height="31" fill="white"/>
</clipPath>
</defs>
</svg>
