<svg width="14" height="14" viewBox="0 0 14 14" fill="none" xmlns="http://www.w3.org/2000/svg">
<g clip-path="url(#clip0_200_4198)">
<path d="M1.74935 5.83333H12.2493V11.669C12.2493 11.9898 11.9898 12.25 11.6701 12.25H2.3286C2.2524 12.2499 2.17697 12.2348 2.10662 12.2056C2.03626 12.1763 1.97236 12.1335 1.91856 12.0796C1.86476 12.0256 1.82213 11.9616 1.7931 11.8911C1.76406 11.8207 1.7492 11.7452 1.74935 11.669V5.83333ZM5.24935 7V8.16667H8.74935V7H5.24935ZM1.16602 2.33333C1.16602 2.01133 1.43143 1.75 1.74468 1.75H12.254C12.5737 1.75 12.8327 2.009 12.8327 2.33333V4.66667H1.16602V2.33333Z" fill="#6D757D"/>
</g>
<defs>
<clipPath id="clip0_200_4198">
<rect width="14" height="14" fill="white"/>
</clipPath>
</defs>
</svg>
