<svg width="14" height="14" viewBox="0 0 14 14" fill="none" xmlns="http://www.w3.org/2000/svg">
<g clip-path="url(#clip0_200_4211)">
<path d="M11.7146 6.12539L12.4158 6.54597C12.459 6.57187 12.4948 6.60853 12.5197 6.65239C12.5445 6.69625 12.5576 6.7458 12.5576 6.79622C12.5576 6.84663 12.5445 6.89619 12.5197 6.94005C12.4948 6.98391 12.459 7.02057 12.4158 7.04647L6.99951 10.2962L1.58326 7.04647C1.54 7.02057 1.5042 6.98391 1.47934 6.94005C1.45447 6.89619 1.44141 6.84663 1.44141 6.79622C1.44141 6.7458 1.45447 6.69625 1.47934 6.65239C1.5042 6.60853 1.54 6.57187 1.58326 6.54597L2.28443 6.12539L6.99951 8.95455L11.7146 6.12539ZM11.7146 8.86705L12.4158 9.28764C12.459 9.31353 12.4948 9.3502 12.5197 9.39406C12.5445 9.43792 12.5576 9.48747 12.5576 9.53789C12.5576 9.5883 12.5445 9.63786 12.5197 9.68171C12.4948 9.72557 12.459 9.76224 12.4158 9.78814L7.29993 12.8576C7.2092 12.9121 7.10535 12.9409 6.99951 12.9409C6.89367 12.9409 6.78982 12.9121 6.69909 12.8576L1.58326 9.78814C1.54 9.76224 1.5042 9.72557 1.47934 9.68171C1.45447 9.63786 1.44141 9.5883 1.44141 9.53789C1.44141 9.48747 1.45447 9.43792 1.47934 9.39406C1.5042 9.3502 1.54 9.31353 1.58326 9.28764L2.28443 8.86705L6.99951 11.6962L11.7146 8.86705V8.86705ZM7.29934 0.76397L12.4158 3.83347C12.459 3.85937 12.4948 3.89603 12.5197 3.93989C12.5445 3.98375 12.5576 4.0333 12.5576 4.08372C12.5576 4.13414 12.5445 4.18369 12.5197 4.22755C12.4948 4.27141 12.459 4.30807 12.4158 4.33397L6.99951 7.58372L1.58326 4.33397C1.54 4.30807 1.5042 4.27141 1.47934 4.22755C1.45447 4.18369 1.44141 4.13414 1.44141 4.08372C1.44141 4.0333 1.45447 3.98375 1.47934 3.93989C1.5042 3.89603 1.54 3.85937 1.58326 3.83347L6.69909 0.76397C6.78982 0.709461 6.89367 0.680664 6.99951 0.680664C7.10535 0.680664 7.2092 0.709461 7.29993 0.76397H7.29934Z" fill="#FF7F3B"/>
</g>
<defs>
<clipPath id="clip0_200_4211">
<rect width="14" height="14" fill="white"/>
</clipPath>
</defs>
</svg>
