<svg width="14" height="14" viewBox="0 0 14 14" fill="none" xmlns="http://www.w3.org/2000/svg">
<g clip-path="url(#clip0_200_4204)">
<path d="M12.2507 11.0833H13.4173V12.25H0.583984V11.0833H1.75065V2.33333C1.75065 2.17862 1.81211 2.03025 1.92151 1.92085C2.0309 1.81146 2.17927 1.75 2.33398 1.75H8.16732C8.32203 1.75 8.4704 1.81146 8.5798 1.92085C8.68919 2.03025 8.75065 2.17862 8.75065 2.33333V11.0833H9.91732V5.25H11.6673C11.822 5.25 11.9704 5.31146 12.0798 5.42085C12.1892 5.53025 12.2507 5.67862 12.2507 5.83333V11.0833ZM4.08398 6.41667V7.58333H6.41732V6.41667H4.08398ZM4.08398 4.08333V5.25H6.41732V4.08333H4.08398Z" fill="#FF7F3B"/>
</g>
<defs>
<clipPath id="clip0_200_4204">
<rect width="14" height="14" fill="white"/>
</clipPath>
</defs>
</svg>
