<svg width="14" height="14" viewBox="0 0 14 14" fill="none" xmlns="http://www.w3.org/2000/svg">
<g clip-path="url(#clip0_200_4195)">
<path d="M10.5 4.66634H11.6667C11.8214 4.66634 11.9697 4.7278 12.0791 4.8372C12.1885 4.94659 12.25 5.09496 12.25 5.24967V12.2497C12.25 12.4044 12.1885 12.5528 12.0791 12.6622C11.9697 12.7715 11.8214 12.833 11.6667 12.833H2.33333C2.17862 12.833 2.03025 12.7715 1.92085 12.6622C1.81146 12.5528 1.75 12.4044 1.75 12.2497V5.24967C1.75 5.09496 1.81146 4.94659 1.92085 4.8372C2.03025 4.7278 2.17862 4.66634 2.33333 4.66634H3.5V4.08301C3.5 3.15475 3.86875 2.26451 4.52513 1.60813C5.1815 0.951757 6.07174 0.583008 7 0.583008C7.92826 0.583008 8.8185 0.951757 9.47487 1.60813C10.1313 2.26451 10.5 3.15475 10.5 4.08301V4.66634ZM6.41667 9.17667V10.4997H7.58333V9.17667C7.80575 9.04826 7.97958 8.85005 8.07786 8.61278C8.17614 8.3755 8.19338 8.11243 8.12691 7.86436C8.06044 7.61628 7.91397 7.39708 7.71022 7.24073C7.50647 7.08439 7.25682 6.99964 7 6.99964C6.74318 6.99964 6.49353 7.08439 6.28978 7.24073C6.08603 7.39708 5.93956 7.61628 5.87309 7.86436C5.80662 8.11243 5.82386 8.3755 5.92214 8.61278C6.02042 8.85005 6.19425 9.04826 6.41667 9.17667V9.17667ZM9.33333 4.66634V4.08301C9.33333 3.46417 9.0875 2.87068 8.64992 2.43309C8.21233 1.99551 7.61884 1.74967 7 1.74967C6.38116 1.74967 5.78767 1.99551 5.35008 2.43309C4.9125 2.87068 4.66667 3.46417 4.66667 4.08301V4.66634H9.33333Z" fill="#6D757D"/>
</g>
<defs>
<clipPath id="clip0_200_4195">
<rect width="14" height="14" fill="white"/>
</clipPath>
</defs>
</svg>
