<svg width="14" height="14" viewBox="0 0 14 14" fill="none" xmlns="http://www.w3.org/2000/svg">
<path d="M10.5007 12.4515L11.9817 10.971L11.6627 10.6525L10.7247 11.5899V9.42283H10.2761V11.5899L9.33865 10.6525L9.01957 10.971L10.5007 12.4515ZM7.00065 6.66541L3.25273 4.4995L3.02932 4.62783C2.99198 4.65039 2.96398 4.68053 2.94532 4.71825C2.92665 4.75558 2.91732 4.79272 2.91732 4.82966V4.97083L7.00065 7.33333L11.084 4.97083V4.82966C11.084 4.79194 11.0747 4.75441 11.056 4.71708C11.0373 4.67975 11.0093 4.65 10.972 4.62783L10.7486 4.49891L7.00065 6.66541ZM6.52932 12.0671L2.80532 9.92041C2.65754 9.83603 2.54223 9.7213 2.4594 9.57625C2.37579 9.43119 2.33398 9.27428 2.33398 9.1055V4.89441C2.33398 4.72525 2.37579 4.56814 2.4594 4.42308C2.54262 4.27803 2.65793 4.1633 2.80532 4.07891L6.52932 1.93225C6.6771 1.84786 6.83421 1.80566 7.00065 1.80566C7.1671 1.80566 7.32421 1.84786 7.47198 1.93225L11.196 4.07891C11.3438 4.16291 11.4593 4.27764 11.5425 4.42308C11.6257 4.56814 11.6673 4.72525 11.6673 4.89441V7.4045C11.4795 7.338 11.2897 7.28939 11.098 7.25866C10.9063 7.22794 10.7072 7.21258 10.5007 7.21258C9.4701 7.21258 8.59179 7.5758 7.86573 8.30225C7.13968 9.02869 6.77665 9.907 6.77665 10.9372C6.77665 11.1588 6.79512 11.3737 6.83207 11.5817C6.86901 11.7898 6.92443 11.9914 6.99832 12.1867C6.91548 12.1898 6.83498 12.1822 6.75682 12.1639C6.67865 12.1456 6.60282 12.1134 6.52932 12.0671ZM10.5007 13.2705C9.85082 13.2705 9.29957 13.0442 8.8469 12.5915C8.39385 12.1381 8.16732 11.5866 8.16732 10.9372C8.16732 10.2877 8.39385 9.73647 8.8469 9.28341C9.29996 8.83036 9.85121 8.60383 10.5007 8.60383C11.1501 8.60383 11.7015 8.83036 12.155 9.28341C12.6084 9.73647 12.8348 10.2877 12.834 10.9372C12.8332 11.5866 12.6069 12.1381 12.155 12.5915C11.7031 13.0449 11.1517 13.2713 10.5007 13.2705Z" fill="#6D757D"/>
</svg>
