<svg width="14" height="14" viewBox="0 0 14 14" fill="none" xmlns="http://www.w3.org/2000/svg">
<g clip-path="url(#clip0_200_4191)">
<path d="M5.24935 0.583008V1.74967H8.74935V0.583008H9.91602V1.74967H12.2493C12.4041 1.74967 12.5524 1.81113 12.6618 1.92053C12.7712 2.02993 12.8327 2.1783 12.8327 2.33301V11.6663C12.8327 11.8211 12.7712 11.9694 12.6618 12.0788C12.5524 12.1882 12.4041 12.2497 12.2493 12.2497H1.74935C1.59464 12.2497 1.44627 12.1882 1.33687 12.0788C1.22747 11.9694 1.16602 11.8211 1.16602 11.6663V2.33301C1.16602 2.1783 1.22747 2.02993 1.33687 1.92053C1.44627 1.81113 1.59464 1.74967 1.74935 1.74967H4.08268V0.583008H5.24935ZM11.666 4.66634H2.33268V11.083H11.666V4.66634ZM8.77035 5.91234L9.59518 6.73718L6.70768 9.62468L4.64502 7.56201L5.47102 6.73718L6.70827 7.97501L8.77093 5.91234H8.77035Z" fill="#6D757D"/>
</g>
<defs>
<clipPath id="clip0_200_4191">
<rect width="14" height="14" fill="white"/>
</clipPath>
</defs>
</svg>
