<svg width="14" height="14" viewBox="0 0 14 14" fill="none" xmlns="http://www.w3.org/2000/svg">
<g clip-path="url(#clip0_203_4018)">
<path d="M4.08268 4.08366V1.75033C4.08268 1.59562 4.14414 1.44724 4.25354 1.33785C4.36293 1.22845 4.51131 1.16699 4.66602 1.16699H12.2493C12.4041 1.16699 12.5524 1.22845 12.6618 1.33785C12.7712 1.44724 12.8327 1.59562 12.8327 1.75033V9.33366C12.8327 9.48837 12.7712 9.63674 12.6618 9.74614C12.5524 9.85553 12.4041 9.91699 12.2493 9.91699H9.91602V12.2462C9.91602 12.5706 9.6541 12.8337 9.3286 12.8337H1.75343C1.67627 12.8337 1.59985 12.8186 1.52855 12.7891C1.45724 12.7596 1.39246 12.7163 1.3379 12.6618C1.28333 12.6072 1.24007 12.5424 1.21057 12.4711C1.18108 12.3998 1.16594 12.3234 1.16602 12.2462L1.16777 4.67108C1.16777 4.34674 1.42968 4.08366 1.75518 4.08366H4.08268ZM5.24935 4.08366H9.3286C9.65293 4.08366 9.91602 4.34558 9.91602 4.67108V8.75033H11.666V2.33366H5.24935V4.08366ZM4.95943 10.5003L8.25877 7.20041L7.43393 6.37558L4.95943 8.85066L3.72102 7.61283L2.89618 8.43766L4.95943 10.5003Z" fill="#FF7F3B"/>
</g>
<defs>
<clipPath id="clip0_203_4018">
<rect width="14" height="14" fill="white"/>
</clipPath>
</defs>
</svg>
